{
	"asset":{
		"generator":"Khronos glTF Blender I/O v4.2.57",
		"version":"2.0"
	},
	"scene":0,
	"scenes":[
		{
			"name":"Scene",
			"nodes":[
				0,
				1
			]
		}
	],
	"nodes":[
		{
			"mesh":0,
			"name":"base",
			"scale":[
				0.03829531744122505,
				0.03829531744122505,
				0.03829531744122505
			],
			"translation":[
				0,
				-0.07444748282432556,
				0
			]
		},
		{
			"mesh":0,
			"name":"base.001",
			"rotation":[
				0,
				0.12664273381233215,
				0,
				0.9919484257698059
			],
			"scale":[
				0.03829531371593475,
				0.03829531744122505,
				0.03829531371593475
			],
			"translation":[
				-0.02551964670419693,
				-0.07444748282432556,
				-0.08402837812900543
			]
		}
	],
	"materials":[
		{
			"doubleSided":true,
			"name":"blackPlastic",
			"pbrMetallicRoughness":{
				"baseColorFactor":[
					0,
					0,
					0,
					1
				],
				"metallicFactor":0,
				"roughnessFactor":0.5
			}
		},
		{
			"doubleSided":true,
			"name":"grayPlastic",
			"pbrMetallicRoughness":{
				"baseColorFactor":[
					0.11601335555315018,
					0.11601335555315018,
					0.11601335555315018,
					1
				],
				"metallicFactor":0,
				"roughnessFactor":0.5
			}
		}
	],
	"meshes":[
		{
			"name":"Plane",
			"primitives":[
				{
					"attributes":{
						"POSITION":0,
						"NORMAL":1,
						"TEXCOORD_0":2
					},
					"indices":3,
					"material":0
				},
				{
					"attributes":{
						"POSITION":4,
						"NORMAL":5,
						"TEXCOORD_0":6
					},
					"indices":7,
					"material":1
				}
			]
		}
	],
	"accessors":[
		{
			"bufferView":0,
			"componentType":5126,
			"count":7154,
			"max":[
				1.0684595108032227,
				3.8388612270355225,
				1
			],
			"min":[
				-1,
				0,
				-1
			],
			"type":"VEC3"
		},
		{
			"bufferView":1,
			"componentType":5126,
			"count":7154,
			"type":"VEC3"
		},
		{
			"bufferView":2,
			"componentType":5126,
			"count":7154,
			"type":"VEC2"
		},
		{
			"bufferView":3,
			"componentType":5123,
			"count":13032,
			"type":"SCALAR"
		},
		{
			"bufferView":4,
			"componentType":5126,
			"count":2220,
			"max":[
				1.0718624591827393,
				3.3743748664855957,
				0.9013304710388184
			],
			"min":[
				0.9680821895599365,
				0.37864404916763306,
				-0.9006456136703491
			],
			"type":"VEC3"
		},
		{
			"bufferView":5,
			"componentType":5126,
			"count":2220,
			"type":"VEC3"
		},
		{
			"bufferView":6,
			"componentType":5126,
			"count":2220,
			"type":"VEC2"
		},
		{
			"bufferView":7,
			"componentType":5123,
			"count":3552,
			"type":"SCALAR"
		}
	],
	"bufferViews":[
		{
			"buffer":0,
			"byteLength":85848,
			"byteOffset":0,
			"target":34962
		},
		{
			"buffer":0,
			"byteLength":85848,
			"byteOffset":85848,
			"target":34962
		},
		{
			"buffer":0,
			"byteLength":57232,
			"byteOffset":171696,
			"target":34962
		},
		{
			"buffer":0,
			"byteLength":26064,
			"byteOffset":228928,
			"target":34963
		},
		{
			"buffer":0,
			"byteLength":26640,
			"byteOffset":254992,
			"target":34962
		},
		{
			"buffer":0,
			"byteLength":26640,
			"byteOffset":281632,
			"target":34962
		},
		{
			"buffer":0,
			"byteLength":17760,
			"byteOffset":308272,
			"target":34962
		},
		{
			"buffer":0,
			"byteLength":7104,
			"byteOffset":326032,
			"target":34963
		}
	],
	"buffers":[
		{
			"byteLength":333136,
			"uri":"scene.bin"
		}
	]
}
