{
	"asset":{
		"generator":"Khronos glTF Blender I/O v4.2.57",
		"version":"2.0"
	},
	"scene":0,
	"scenes":[
		{
			"name":"Scene",
			"nodes":[
				0,
				1
			]
		}
	],
	"nodes":[
		{
			"mesh":0,
			"name":"golfbase",
			"rotation":[
				0.2719826400279999,
				0,
				0,
				0.9623021483421326
			],
			"translation":[
				0,
				0.09781990945339203,
				0
			]
		},
		{
			"mesh":1,
			"name":"golfbase.001",
			"rotation":[
				0.08543241024017334,
				0,
				0,
				0.9963439702987671
			],
			"translation":[
				0.02937505394220352,
				0.07353084534406662,
				-0.022422414273023605
			]
		}
	],
	"materials":[
		{
			"doubleSided":true,
			"name":"grayplastic",
			"pbrMetallicRoughness":{
				"baseColorFactor":[
					0.14126241207122803,
					0.1195385605096817,
					0.10946177691221237,
					1
				],
				"metallicFactor":0.10144927352666855
			}
		},
		{
			"doubleSided":true,
			"name":"whiteplastic",
			"pbrMetallicRoughness":{
				"baseColorFactor":[
					0.800000011920929,
					0.800000011920929,
					0.800000011920929,
					1
				],
				"metallicFactor":0,
				"roughnessFactor":0.5
			}
		},
		{
			"doubleSided":true,
			"name":"mainpicture",
			"pbrMetallicRoughness":{
				"baseColorTexture":{
					"index":0
				},
				"metallicFactor":0,
				"roughnessFactor":0.5
			}
		},
		{
			"doubleSided":true,
			"name":"backpicture",
			"pbrMetallicRoughness":{
				"baseColorTexture":{
					"index":1
				},
				"metallicFactor":0,
				"roughnessFactor":0.5
			}
		},
		{
			"doubleSided":true,
			"name":"mainpicture.001",
			"pbrMetallicRoughness":{
				"baseColorTexture":{
					"index":2
				},
				"metallicFactor":0,
				"roughnessFactor":0.5
			}
		}
	],
	"meshes":[
		{
			"name":"Cube",
			"primitives":[
				{
					"attributes":{
						"POSITION":0,
						"NORMAL":1,
						"TEXCOORD_0":2
					},
					"indices":3,
					"material":0
				},
				{
					"attributes":{
						"POSITION":4,
						"NORMAL":5,
						"TEXCOORD_0":6
					},
					"indices":7,
					"material":1
				},
				{
					"attributes":{
						"POSITION":8,
						"NORMAL":9,
						"TEXCOORD_0":10
					},
					"indices":11,
					"material":2
				},
				{
					"attributes":{
						"POSITION":12,
						"NORMAL":13,
						"TEXCOORD_0":14
					},
					"indices":15,
					"material":3
				}
			]
		},
		{
			"name":"Cube.002",
			"primitives":[
				{
					"attributes":{
						"POSITION":16,
						"NORMAL":17,
						"TEXCOORD_0":18
					},
					"indices":3,
					"material":0
				},
				{
					"attributes":{
						"POSITION":19,
						"NORMAL":20,
						"TEXCOORD_0":21
					},
					"indices":7,
					"material":1
				},
				{
					"attributes":{
						"POSITION":22,
						"NORMAL":23,
						"TEXCOORD_0":24
					},
					"indices":11,
					"material":4
				},
				{
					"attributes":{
						"POSITION":25,
						"NORMAL":26,
						"TEXCOORD_0":27
					},
					"indices":15,
					"material":3
				}
			]
		}
	],
	"textures":[
		{
			"sampler":0,
			"source":0
		},
		{
			"sampler":0,
			"source":1
		},
		{
			"sampler":0,
			"source":2
		}
	],
	"images":[
		{
			"mimeType":"image/jpeg",
			"name":"golf",
			"uri":"golf.jpg"
		},
		{
			"mimeType":"image/jpeg",
			"name":"s-l1600_back",
			"uri":"s-l1600_back.jpg"
		},
		{
			"mimeType":"image/jpeg",
			"name":"cheap_spiderman",
			"uri":"cheap_spiderman.jpg"
		}
	],
	"accessors":[
		{
			"bufferView":0,
			"componentType":5126,
			"count":2409,
			"max":[
				0.01116885058581829,
				0.06649994850158691,
				0.06099998950958252
			],
			"min":[
				-0.01121080294251442,
				-0.06650006771087646,
				-0.06099998950958252
			],
			"type":"VEC3"
		},
		{
			"bufferView":1,
			"componentType":5126,
			"count":2409,
			"type":"VEC3"
		},
		{
			"bufferView":2,
			"componentType":5126,
			"count":2409,
			"type":"VEC2"
		},
		{
			"bufferView":3,
			"componentType":5123,
			"count":4974,
			"type":"SCALAR"
		},
		{
			"bufferView":4,
			"componentType":5126,
			"count":16,
			"max":[
				0.0022337716072797775,
				-0.06545352190732956,
				0.051596641540527344
			],
			"min":[
				-0.00223376858048141,
				-0.06545352190732956,
				-0.050677474588155746
			],
			"type":"VEC3"
		},
		{
			"bufferView":5,
			"componentType":5126,
			"count":16,
			"type":"VEC3"
		},
		{
			"bufferView":6,
			"componentType":5126,
			"count":16,
			"type":"VEC2"
		},
		{
			"bufferView":7,
			"componentType":5123,
			"count":42,
			"type":"SCALAR"
		},
		{
			"bufferView":8,
			"componentType":5126,
			"count":11,
			"max":[
				0.010572914034128189,
				0.06649994850158691,
				0.020119698718190193
			],
			"min":[
				0.000652801594696939,
				-0.022809870541095734,
				-0.04165465384721756
			],
			"type":"VEC3"
		},
		{
			"bufferView":9,
			"componentType":5126,
			"count":11,
			"type":"VEC3"
		},
		{
			"bufferView":10,
			"componentType":5126,
			"count":11,
			"type":"VEC2"
		},
		{
			"bufferView":11,
			"componentType":5123,
			"count":21,
			"type":"SCALAR"
		},
		{
			"bufferView":12,
			"componentType":5126,
			"count":12,
			"max":[
				-0.01121080294251442,
				-0.002176449866965413,
				0.0431487038731575
			],
			"min":[
				-0.01121080294251442,
				-0.029277198016643524,
				-0.04553160071372986
			],
			"type":"VEC3"
		},
		{
			"bufferView":13,
			"componentType":5126,
			"count":12,
			"type":"VEC3"
		},
		{
			"bufferView":14,
			"componentType":5126,
			"count":12,
			"type":"VEC2"
		},
		{
			"bufferView":15,
			"componentType":5123,
			"count":30,
			"type":"SCALAR"
		},
		{
			"bufferView":16,
			"componentType":5126,
			"count":2409,
			"max":[
				0.01116885058581829,
				0.06649994850158691,
				0.06099998950958252
			],
			"min":[
				-0.01121080294251442,
				-0.06650006771087646,
				-0.06099998950958252
			],
			"type":"VEC3"
		},
		{
			"bufferView":17,
			"componentType":5126,
			"count":2409,
			"type":"VEC3"
		},
		{
			"bufferView":18,
			"componentType":5126,
			"count":2409,
			"type":"VEC2"
		},
		{
			"bufferView":19,
			"componentType":5126,
			"count":16,
			"max":[
				0.0022337716072797775,
				-0.06545352190732956,
				0.051596641540527344
			],
			"min":[
				-0.00223376858048141,
				-0.06545352190732956,
				-0.050677474588155746
			],
			"type":"VEC3"
		},
		{
			"bufferView":20,
			"componentType":5126,
			"count":16,
			"type":"VEC3"
		},
		{
			"bufferView":21,
			"componentType":5126,
			"count":16,
			"type":"VEC2"
		},
		{
			"bufferView":22,
			"componentType":5126,
			"count":11,
			"max":[
				0.010572914034128189,
				0.06649994850158691,
				0.020119698718190193
			],
			"min":[
				0.000652801594696939,
				-0.022809870541095734,
				-0.04165465384721756
			],
			"type":"VEC3"
		},
		{
			"bufferView":23,
			"componentType":5126,
			"count":11,
			"type":"VEC3"
		},
		{
			"bufferView":24,
			"componentType":5126,
			"count":11,
			"type":"VEC2"
		},
		{
			"bufferView":25,
			"componentType":5126,
			"count":12,
			"max":[
				-0.01121080294251442,
				-0.002176449866965413,
				0.0431487038731575
			],
			"min":[
				-0.01121080294251442,
				-0.029277198016643524,
				-0.04553160071372986
			],
			"type":"VEC3"
		},
		{
			"bufferView":26,
			"componentType":5126,
			"count":12,
			"type":"VEC3"
		},
		{
			"bufferView":27,
			"componentType":5126,
			"count":12,
			"type":"VEC2"
		}
	],
	"bufferViews":[
		{
			"buffer":0,
			"byteLength":28908,
			"byteOffset":0,
			"target":34962
		},
		{
			"buffer":0,
			"byteLength":28908,
			"byteOffset":28908,
			"target":34962
		},
		{
			"buffer":0,
			"byteLength":19272,
			"byteOffset":57816,
			"target":34962
		},
		{
			"buffer":0,
			"byteLength":9948,
			"byteOffset":77088,
			"target":34963
		},
		{
			"buffer":0,
			"byteLength":192,
			"byteOffset":87036,
			"target":34962
		},
		{
			"buffer":0,
			"byteLength":192,
			"byteOffset":87228,
			"target":34962
		},
		{
			"buffer":0,
			"byteLength":128,
			"byteOffset":87420,
			"target":34962
		},
		{
			"buffer":0,
			"byteLength":84,
			"byteOffset":87548,
			"target":34963
		},
		{
			"buffer":0,
			"byteLength":132,
			"byteOffset":87632,
			"target":34962
		},
		{
			"buffer":0,
			"byteLength":132,
			"byteOffset":87764,
			"target":34962
		},
		{
			"buffer":0,
			"byteLength":88,
			"byteOffset":87896,
			"target":34962
		},
		{
			"buffer":0,
			"byteLength":42,
			"byteOffset":87984,
			"target":34963
		},
		{
			"buffer":0,
			"byteLength":144,
			"byteOffset":88028,
			"target":34962
		},
		{
			"buffer":0,
			"byteLength":144,
			"byteOffset":88172,
			"target":34962
		},
		{
			"buffer":0,
			"byteLength":96,
			"byteOffset":88316,
			"target":34962
		},
		{
			"buffer":0,
			"byteLength":60,
			"byteOffset":88412,
			"target":34963
		},
		{
			"buffer":0,
			"byteLength":28908,
			"byteOffset":88472,
			"target":34962
		},
		{
			"buffer":0,
			"byteLength":28908,
			"byteOffset":117380,
			"target":34962
		},
		{
			"buffer":0,
			"byteLength":19272,
			"byteOffset":146288,
			"target":34962
		},
		{
			"buffer":0,
			"byteLength":192,
			"byteOffset":165560,
			"target":34962
		},
		{
			"buffer":0,
			"byteLength":192,
			"byteOffset":165752,
			"target":34962
		},
		{
			"buffer":0,
			"byteLength":128,
			"byteOffset":165944,
			"target":34962
		},
		{
			"buffer":0,
			"byteLength":132,
			"byteOffset":166072,
			"target":34962
		},
		{
			"buffer":0,
			"byteLength":132,
			"byteOffset":166204,
			"target":34962
		},
		{
			"buffer":0,
			"byteLength":88,
			"byteOffset":166336,
			"target":34962
		},
		{
			"buffer":0,
			"byteLength":144,
			"byteOffset":166424,
			"target":34962
		},
		{
			"buffer":0,
			"byteLength":144,
			"byteOffset":166568,
			"target":34962
		},
		{
			"buffer":0,
			"byteLength":96,
			"byteOffset":166712,
			"target":34962
		}
	],
	"samplers":[
		{
			"magFilter":9729,
			"minFilter":9987
		}
	],
	"buffers":[
		{
			"byteLength":166808,
			"uri":"scene.bin"
		}
	]
}
