<svg width="199" height="386" viewBox="0 0 199 386" fill="none" xmlns="http://www.w3.org/2000/svg">
<g id="icons">
<g id="icons/facebook" clip-path="url(#clip0_137_1456)">
<path id="facebook-icon" d="M84.0011 77.074C84.0011 70.405 78.6281 64.999 72.001 64.999C65.371 65.0005 59.998 70.405 59.998 77.0755C59.998 83.101 64.387 88.096 70.123 89.002V80.5645H67.078V77.0755H70.126V74.413C70.126 71.3875 71.9185 69.7165 74.6591 69.7165C75.9731 69.7165 77.3456 69.952 77.3456 69.952V72.922H75.8321C74.3426 72.922 73.8776 73.8535 73.8776 74.809V77.074H77.2045L76.6735 80.563H73.876V89.0005C79.6121 88.0945 84.0011 83.0995 84.0011 77.074Z" fill="white"/>
</g>
<g id="icons/instagram" clip-path="url(#clip1_137_1456)">
<path id="instagram-icon" d="M72 109C68.7435 109 68.334 109.015 67.0545 109.072C65.775 109.132 64.9035 109.333 64.14 109.63C63.3391 109.931 62.6137 110.404 62.0145 111.015C61.4041 111.614 60.9317 112.339 60.63 113.14C60.333 113.902 60.1305 114.775 60.072 116.05C60.015 117.332 60 117.741 60 121.002C60 124.26 60.015 124.668 60.072 125.947C60.132 127.225 60.333 128.097 60.63 128.86C60.9375 129.649 61.347 130.318 62.0145 130.986C62.6805 131.653 63.3495 132.064 64.1385 132.37C64.9035 132.667 65.7735 132.869 67.0515 132.928C68.3325 132.985 68.7405 133 72 133C75.2595 133 75.666 132.985 76.947 132.928C78.2235 132.868 79.098 132.667 79.8615 132.37C80.6618 132.069 81.3867 131.596 81.9855 130.986C82.653 130.318 83.0625 129.649 83.37 128.86C83.6655 128.097 83.868 127.225 83.928 125.947C83.985 124.668 84 124.26 84 121C84 117.74 83.985 117.333 83.928 116.052C83.868 114.775 83.6655 113.902 83.37 113.14C83.0684 112.339 82.5959 111.614 81.9855 111.015C81.3864 110.404 80.661 109.931 79.86 109.63C79.095 109.333 78.222 109.131 76.9455 109.072C75.6645 109.015 75.258 109 71.997 109H72.0015H72ZM70.9245 111.163H72.0015C75.2055 111.163 75.585 111.174 76.8495 111.232C78.0195 111.285 78.6555 111.481 79.0785 111.645C79.638 111.862 80.0385 112.123 80.4585 112.543C80.8785 112.963 81.138 113.362 81.3555 113.923C81.5205 114.345 81.7155 114.981 81.768 116.151C81.8265 117.415 81.8385 117.795 81.8385 120.997C81.8385 124.2 81.8265 124.58 81.768 125.845C81.7155 127.015 81.519 127.649 81.3555 128.073C81.1631 128.594 80.856 129.065 80.457 129.451C80.037 129.871 79.638 130.131 79.077 130.348C78.657 130.513 78.021 130.708 76.8495 130.762C75.585 130.819 75.2055 130.833 72.0015 130.833C68.7975 130.833 68.4165 130.819 67.152 130.762C65.982 130.708 65.3475 130.513 64.9245 130.348C64.4032 130.156 63.9317 129.849 63.5445 129.451C63.1451 129.064 62.8376 128.592 62.6445 128.071C62.481 127.649 62.2845 127.014 62.232 125.844C62.175 124.579 62.163 124.2 62.163 120.994C62.163 117.79 62.175 117.412 62.232 116.148C62.286 114.977 62.481 114.342 62.646 113.918C62.8635 113.359 63.1245 112.958 63.5445 112.538C63.9645 112.118 64.3635 111.859 64.9245 111.641C65.3475 111.477 65.982 111.282 67.152 111.227C68.259 111.177 68.688 111.161 70.9245 111.16V111.163ZM78.4065 113.155C78.2174 113.155 78.0301 113.192 77.8554 113.265C77.6807 113.337 77.522 113.443 77.3883 113.577C77.2545 113.71 77.1485 113.869 77.0761 114.044C77.0037 114.219 76.9665 114.406 76.9665 114.595C76.9665 114.784 77.0037 114.971 77.0761 115.146C77.1485 115.321 77.2545 115.48 77.3883 115.613C77.522 115.747 77.6807 115.853 77.8554 115.925C78.0301 115.998 78.2174 116.035 78.4065 116.035C78.7884 116.035 79.1547 115.883 79.4247 115.613C79.6948 115.343 79.8465 114.977 79.8465 114.595C79.8465 114.213 79.6948 113.847 79.4247 113.577C79.1547 113.307 78.7884 113.155 78.4065 113.155ZM72.0015 114.838C71.1841 114.825 70.3723 114.975 69.6135 115.279C68.8546 115.583 68.1638 116.035 67.5812 116.609C66.9987 117.182 66.536 117.866 66.2203 118.62C65.9045 119.374 65.7419 120.183 65.7419 121.001C65.7419 121.818 65.9045 122.628 66.2203 123.382C66.536 124.136 66.9987 124.819 67.5812 125.393C68.1638 125.966 68.8546 126.418 69.6135 126.722C70.3723 127.026 71.1841 127.176 72.0015 127.163C73.6193 127.138 75.1623 126.478 76.2975 125.325C77.4326 124.172 78.0689 122.619 78.0689 121.001C78.0689 119.383 77.4326 117.83 76.2975 116.677C75.1623 115.524 73.6193 114.863 72.0015 114.838ZM72.0015 117C73.0625 117 74.08 117.421 74.8303 118.171C75.5805 118.921 76.002 119.939 76.002 121C76.002 122.061 75.5805 123.079 74.8303 123.829C74.08 124.579 73.0625 125 72.0015 125C70.9405 125 69.923 124.579 69.1727 123.829C68.4225 123.079 68.001 122.061 68.001 121C68.001 119.939 68.4225 118.921 69.1727 118.171C69.923 117.421 70.9405 117 72.0015 117Z" fill="white"/>
</g>
<g id="icons/twitter">
<path id="twitter-icon" d="M67.539 175.5C76.596 175.5 81.5505 167.996 81.5505 161.499C81.5505 161.289 81.5505 161.076 81.5415 160.866C82.5061 160.168 83.3386 159.303 84 158.313C83.099 158.71 82.1441 158.972 81.1665 159.09C82.1963 158.474 82.9676 157.506 83.337 156.365C82.3695 156.938 81.3105 157.34 80.2065 157.554C79.4643 156.764 78.4821 156.24 77.4121 156.064C76.3421 155.888 75.2441 156.07 74.288 156.582C73.3319 157.093 72.5712 157.906 72.1237 158.894C71.6761 159.881 71.5668 160.989 71.8125 162.045C69.8546 161.947 67.9392 161.438 66.1906 160.552C64.4419 159.666 62.899 158.422 61.662 156.902C61.034 157.986 60.8424 159.269 61.126 160.49C61.4096 161.711 62.1472 162.778 63.189 163.475C62.4083 163.448 61.6448 163.238 60.96 162.863V162.93C60.9613 164.066 61.355 165.167 62.0743 166.047C62.7937 166.926 63.7946 167.53 64.908 167.757C64.4854 167.873 64.0488 167.931 63.6105 167.93C63.3015 167.93 62.9931 167.902 62.6895 167.844C63.0042 168.822 63.6169 169.677 64.4419 170.29C65.2668 170.902 66.2627 171.241 67.29 171.26C65.5448 172.63 63.3891 173.374 61.17 173.37C60.779 173.372 60.3882 173.349 60 173.303C62.2523 174.738 64.8679 175.501 67.539 175.5Z" fill="white"/>
</g>
<g id="icons/gmail">
<path id="gmail-icon" d="M81.6 215.8H79.2V205.3L72 209.8L64.8 205.3V215.8H62.4V201.4H63.84L72 206.5L80.16 201.4H81.6M81.6 199H62.4C61.068 199 60 200.068 60 201.4V215.8C60 216.437 60.2529 217.047 60.7029 217.497C61.153 217.947 61.7635 218.2 62.4 218.2H81.6C82.2365 218.2 82.847 217.947 83.2971 217.497C83.7471 217.047 84 216.437 84 215.8V201.4C84 200.763 83.7471 200.153 83.2971 199.703C82.847 199.253 82.2365 199 81.6 199Z" fill="white"/>
</g>
<g id="icons/check">
<path id="check-icon" d="M76.455 242.455C76.6663 242.254 76.9475 242.143 77.2392 242.145C77.531 242.147 77.8104 242.262 78.0187 242.467C78.2269 242.671 78.3476 242.948 78.3553 243.24C78.363 243.532 78.2571 243.815 78.06 244.03L72.075 251.515C71.9721 251.626 71.8479 251.715 71.7098 251.777C71.5717 251.838 71.4226 251.872 71.2714 251.874C71.1201 251.877 70.9699 251.849 70.8296 251.793C70.6894 251.736 70.5619 251.652 70.455 251.545L66.486 247.576C66.3755 247.473 66.2868 247.349 66.2253 247.211C66.1638 247.073 66.1308 246.924 66.1281 246.773C66.1254 246.622 66.1532 246.472 66.2098 246.332C66.2664 246.192 66.3506 246.064 66.4574 245.957C66.5643 245.851 66.6915 245.766 66.8316 245.71C66.9717 245.653 67.1217 245.625 67.2728 245.628C67.4238 245.631 67.5728 245.664 67.7108 245.725C67.8488 245.787 67.973 245.875 68.076 245.986L71.217 249.126L76.4265 242.488C76.4359 242.476 76.4444 242.465 76.455 242.455Z" fill="white"/>
</g>
<g id="icons/person">
<path id="person-icon" d="M114.5 86C114.5 86 113 86 113 84.5C113 83 114.5 78.5 122 78.5C129.5 78.5 131 83 131 84.5C131 86 129.5 86 129.5 86H114.5ZM122 77C123.193 77 124.338 76.5259 125.182 75.682C126.026 74.8381 126.5 73.6935 126.5 72.5C126.5 71.3065 126.026 70.1619 125.182 69.318C124.338 68.4741 123.193 68 122 68C120.807 68 119.662 68.4741 118.818 69.318C117.974 70.1619 117.5 71.3065 117.5 72.5C117.5 73.6935 117.974 74.8381 118.818 75.682C119.662 76.5259 120.807 77 122 77Z" fill="white"/>
</g>
<g id="icons/skills">
<path id="skills-icon" d="M67.2 283.5C67.2258 281.307 68.1086 279.211 69.6597 277.66C71.2107 276.109 73.307 275.226 75.5004 275.2C75.1947 273.424 74.2342 271.827 72.8086 270.724C71.3831 269.622 69.5959 269.094 67.8001 269.245C66.0042 269.395 64.33 270.214 63.1081 271.538C61.8862 272.863 61.2054 274.598 61.2 276.4C61.2002 278.102 61.8028 279.748 62.9011 281.048C63.9993 282.347 65.5223 283.216 67.2 283.5ZM71.2248 273.576C71.3372 273.689 71.4004 273.842 71.4004 274.001C71.4004 274.16 71.3372 274.312 71.2248 274.425L67.6248 278.025C67.569 278.081 67.5028 278.125 67.4299 278.155C67.357 278.186 67.2789 278.201 67.2 278.201C67.121 278.201 67.0429 278.186 66.97 278.155C66.8971 278.125 66.8309 278.081 66.7752 278.025L64.9752 276.225C64.9194 276.169 64.8751 276.103 64.8449 276.03C64.8147 275.957 64.7992 275.879 64.7992 275.8C64.7992 275.721 64.8147 275.643 64.8449 275.57C64.8751 275.497 64.9194 275.431 64.9752 275.375C65.0309 275.319 65.0972 275.275 65.1701 275.245C65.2429 275.215 65.3211 275.199 65.4 275.199C65.4788 275.199 65.557 275.215 65.6299 275.245C65.7027 275.275 65.769 275.319 65.8248 275.375L67.2 276.752L70.3752 273.575C70.4309 273.519 70.4971 273.475 70.57 273.445C70.6429 273.414 70.721 273.399 70.8 273.399C70.8789 273.399 70.957 273.414 71.0299 273.445C71.1028 273.475 71.169 273.521 71.2248 273.576ZM75.6 290.8C77.5095 290.8 79.3409 290.041 80.6911 288.691C82.0414 287.341 82.8 285.51 82.8 283.6C82.8 281.69 82.0414 279.859 80.6911 278.509C79.3409 277.159 77.5095 276.4 75.6 276.4C73.6904 276.4 71.859 277.159 70.5088 278.509C69.1585 279.859 68.4 281.69 68.4 283.6C68.4 285.51 69.1585 287.341 70.5088 288.691C71.859 290.041 73.6904 290.8 75.6 290.8ZM73.6248 280.775L75.6 282.752L77.5752 280.775C77.6878 280.663 77.8406 280.599 78 280.599C78.1593 280.599 78.3121 280.663 78.4248 280.775C78.5374 280.888 78.6007 281.041 78.6007 281.2C78.6007 281.359 78.5374 281.512 78.4248 281.625L76.4484 283.6L78.4248 285.575C78.5374 285.688 78.6007 285.841 78.6007 286C78.6007 286.159 78.5374 286.312 78.4248 286.425C78.3121 286.537 78.1593 286.601 78 286.601C77.8406 286.601 77.6878 286.537 77.5752 286.425L75.6 284.448L73.6248 286.425C73.5121 286.537 73.3593 286.601 73.2 286.601C73.0406 286.601 72.8878 286.537 72.7752 286.425C72.6625 286.312 72.5992 286.159 72.5992 286C72.5992 285.841 72.6625 285.688 72.7752 285.575L74.7516 283.6L72.7752 281.625C72.7194 281.569 72.6751 281.503 72.6449 281.43C72.6147 281.357 72.5992 281.279 72.5992 281.2C72.5992 281.121 72.6147 281.043 72.6449 280.97C72.6751 280.897 72.7194 280.831 72.7752 280.775C72.8309 280.719 72.8972 280.675 72.9701 280.645C73.0429 280.615 73.1211 280.599 73.2 280.599C73.2788 280.599 73.357 280.615 73.4299 280.645C73.5027 280.675 73.569 280.719 73.6248 280.775Z" fill="white"/>
</g>
<g id="icons/portfolio">
<path id="portfolio-icon" d="M113 130C112.45 130 111.979 129.804 111.587 129.412C111.195 129.02 110.999 128.549 111 128V115H113V128H130V130H113ZM117 126C116.45 126 115.979 125.804 115.587 125.412C115.195 125.02 114.999 124.549 115 124V113C115 112.45 115.196 111.979 115.588 111.587C115.98 111.195 116.451 110.999 117 111H122L124 113H131C131.55 113 132.021 113.196 132.413 113.588C132.805 113.98 133.001 114.451 133 115V124C133 124.55 132.804 125.021 132.412 125.413C132.02 125.805 131.549 126.001 131 126H117Z" fill="white"/>
</g>
<g id="icons/experience">
<path id="experience-icon" d="M78 320V317H75V315H78V312H80V315H83V317H80V320H78ZM69 318C67.9 318 66.9583 317.608 66.175 316.825C65.3917 316.042 65 315.1 65 314C65 312.9 65.3917 311.958 66.175 311.175C66.9583 310.392 67.9 310 69 310C70.1 310 71.0417 310.392 71.825 311.175C72.6083 311.958 73 312.9 73 314C73 315.1 72.6083 316.042 71.825 316.825C71.0417 317.608 70.1 318 69 318ZM61 326V323.2C61 322.633 61.146 322.112 61.438 321.637C61.73 321.162 62.1173 320.799 62.6 320.55C63.6333 320.033 64.6833 319.646 65.75 319.387C66.8167 319.128 67.9 318.999 69 319C70.1 319 71.1833 319.129 72.25 319.388C73.3167 319.647 74.3667 320.034 75.4 320.55C75.8833 320.8 76.271 321.163 76.563 321.638C76.855 322.113 77.0007 322.634 77 323.2V326H61Z" fill="white"/>
</g>
<g id="icons/z">
<path id="Vector 1" d="M119 314H127L119 322H127" stroke="black"/>
</g>
<path d="M45 41H154V39H45V41ZM158 45V341H160V45H158ZM154 345H45V347H154V345ZM41 341V45H39V341H41ZM45 345C42.7909 345 41 343.209 41 341H39C39 344.314 41.6863 347 45 347V345ZM158 341C158 343.209 156.209 345 154 345V347C157.314 347 160 344.314 160 341H158ZM154 41C156.209 41 158 42.7909 158 45H160C160 41.6863 157.314 39 154 39V41ZM45 39C41.6863 39 39 41.6863 39 45H41C41 42.7909 42.7909 41 45 41V39Z" fill="#9747FF"/>
</g>
<g id="Rectangle">
<rect x="43" y="43" width="35.5" height="26" rx="3" fill="white"/>
<rect x="43.5" y="43.5" width="34.5" height="25" rx="2.5" stroke="black" stroke-opacity="0.14902"/>
</g>
<path id="icons_2" d="M47.8438 59V53H48.7656V59H47.8438ZM48.3125 52C48.1328 52 47.9779 51.9388 47.8477 51.8164C47.7201 51.694 47.6563 51.5469 47.6563 51.375C47.6563 51.2031 47.7201 51.056 47.8477 50.9336C47.9779 50.8112 48.1328 50.75 48.3125 50.75C48.4922 50.75 48.6458 50.8112 48.7734 50.9336C48.9036 51.056 48.9688 51.2031 48.9688 51.375C48.9688 51.5469 48.9036 51.694 48.7734 51.8164C48.6458 51.9388 48.4922 52 48.3125 52ZM52.8916 59.125C52.3291 59.125 51.8447 58.9922 51.4385 58.7266C51.0322 58.4609 50.7197 58.0951 50.501 57.6289C50.2822 57.1628 50.1729 56.6302 50.1729 56.0312C50.1729 55.4219 50.2848 54.8841 50.5088 54.418C50.7354 53.9492 51.0505 53.5833 51.4541 53.3203C51.8604 53.0547 52.3343 52.9219 52.876 52.9219C53.2979 52.9219 53.6781 53 54.0166 53.1562C54.3551 53.3125 54.6325 53.5312 54.8486 53.8125C55.0648 54.0937 55.1989 54.4219 55.251 54.7969H54.3291C54.2588 54.5234 54.1025 54.2812 53.8604 54.0703C53.6208 53.8568 53.2979 53.75 52.8916 53.75C52.5322 53.75 52.2171 53.8437 51.9463 54.0312C51.6781 54.2161 51.4684 54.4779 51.3174 54.8164C51.1689 55.1523 51.0947 55.5469 51.0947 56C51.0947 56.4635 51.1676 56.8672 51.3135 57.2109C51.4619 57.5547 51.6702 57.8216 51.9385 58.0117C52.2093 58.2018 52.527 58.2969 52.8916 58.2969C53.1312 58.2969 53.3486 58.2552 53.5439 58.1719C53.7393 58.0885 53.9046 57.9688 54.04 57.8125C54.1755 57.6562 54.2718 57.4687 54.3291 57.25H55.251C55.1989 57.6042 55.07 57.9232 54.8643 58.207C54.6611 58.4883 54.3916 58.7122 54.0557 58.8789C53.7223 59.043 53.3343 59.125 52.8916 59.125ZM59.0361 59.125C58.4945 59.125 58.0192 58.9961 57.6104 58.7383C57.2041 58.4805 56.8864 58.1198 56.6572 57.6562C56.4307 57.1927 56.3174 56.651 56.3174 56.0312C56.3174 55.4062 56.4307 54.8607 56.6572 54.3945C56.8864 53.9284 57.2041 53.5664 57.6104 53.3086C58.0192 53.0508 58.4945 52.9219 59.0361 52.9219C59.5778 52.9219 60.0518 53.0508 60.458 53.3086C60.8669 53.5664 61.1846 53.9284 61.4111 54.3945C61.6403 54.8607 61.7549 55.4062 61.7549 56.0312C61.7549 56.651 61.6403 57.1927 61.4111 57.6562C61.1846 58.1198 60.8669 58.4805 60.458 58.7383C60.0518 58.9961 59.5778 59.125 59.0361 59.125ZM59.0361 58.2969C59.4476 58.2969 59.7861 58.1914 60.0518 57.9805C60.3174 57.7695 60.514 57.4922 60.6416 57.1484C60.7692 56.8047 60.833 56.4323 60.833 56.0312C60.833 55.6302 60.7692 55.2565 60.6416 54.9102C60.514 54.5638 60.3174 54.2839 60.0518 54.0703C59.7861 53.8568 59.4476 53.75 59.0361 53.75C58.6247 53.75 58.2861 53.8568 58.0205 54.0703C57.7549 54.2839 57.5583 54.5638 57.4307 54.9102C57.3031 55.2565 57.2393 55.6302 57.2393 56.0312C57.2393 56.4323 57.3031 56.8047 57.4307 57.1484C57.5583 57.4922 57.7549 57.7695 58.0205 57.9805C58.2861 58.1914 58.6247 58.2969 59.0361 58.2969ZM64.084 55.3906V59H63.1621V53H64.0527V53.9375H64.1309C64.2715 53.6328 64.485 53.388 64.7715 53.2031C65.0579 53.0156 65.4277 52.9219 65.8809 52.9219C66.2871 52.9219 66.6426 53.0052 66.9473 53.1719C67.252 53.3359 67.4889 53.5859 67.6582 53.9219C67.8275 54.2552 67.9121 54.6771 67.9121 55.1875V59H66.9902V55.25C66.9902 54.7786 66.8678 54.4115 66.623 54.1484C66.3783 53.8828 66.0423 53.75 65.6152 53.75C65.321 53.75 65.0579 53.8138 64.8262 53.9414C64.597 54.069 64.416 54.2552 64.2832 54.5C64.1504 54.7448 64.084 55.0417 64.084 55.3906ZM73.8467 54.3437L73.0186 54.5781C72.9665 54.4401 72.8896 54.306 72.7881 54.1758C72.6891 54.043 72.5537 53.9336 72.3818 53.8477C72.21 53.7617 71.9899 53.7187 71.7217 53.7187C71.3545 53.7187 71.0485 53.8034 70.8037 53.9727C70.5615 54.1393 70.4404 54.3516 70.4404 54.6094C70.4404 54.8385 70.5238 55.0195 70.6904 55.1523C70.8571 55.2852 71.1175 55.3958 71.4717 55.4844L72.3623 55.7031C72.8988 55.8333 73.2985 56.0326 73.5615 56.3008C73.8245 56.5664 73.9561 56.9089 73.9561 57.3281C73.9561 57.6719 73.8571 57.9792 73.6592 58.25C73.4639 58.5208 73.1904 58.7344 72.8389 58.8906C72.4873 59.0469 72.0785 59.125 71.6123 59.125C71.0003 59.125 70.4938 58.9922 70.0928 58.7266C69.6917 58.4609 69.4378 58.0729 69.3311 57.5625L70.2061 57.3437C70.2894 57.6667 70.4469 57.9089 70.6787 58.0703C70.9131 58.2318 71.2191 58.3125 71.5967 58.3125C72.0264 58.3125 72.3675 58.2214 72.6201 58.0391C72.8753 57.8542 73.0029 57.6328 73.0029 57.375C73.0029 57.1667 72.93 56.9922 72.7842 56.8516C72.6383 56.7083 72.4144 56.6016 72.1123 56.5312L71.1123 56.2969C70.5628 56.1667 70.1592 55.9648 69.9014 55.6914C69.6462 55.4154 69.5186 55.0703 69.5186 54.6562C69.5186 54.3177 69.6136 54.0182 69.8037 53.7578C69.9964 53.4974 70.2581 53.293 70.5889 53.1445C70.9222 52.9961 71.2998 52.9219 71.7217 52.9219C72.3154 52.9219 72.7816 53.0521 73.1201 53.3125C73.4613 53.5729 73.7035 53.9167 73.8467 54.3437Z" fill="black"/>
<defs>
<clipPath id="clip0_137_1456">
<rect width="24" height="24" fill="white" transform="translate(60 65)"/>
</clipPath>
<clipPath id="clip1_137_1456">
<rect width="24" height="24" fill="white" transform="translate(60 109)"/>
</clipPath>
</defs>
</svg>
