{
	"asset":{
		"generator":"Khronos glTF Blender I/O v4.2.57",
		"version":"2.0"
	},
	"scene":0,
	"scenes":[
		{
			"name":"Scene",
			"nodes":[
				0,
				1,
				2,
				3
			]
		}
	],
	"nodes":[
		{
			"mesh":0,
			"name":"candy_bar",
			"translation":[
				0,
				0.03423391655087471,
				0
			]
		},
		{
			"mesh":1,
			"name":"Text",
			"rotation":[
				0,
				0.7071067094802856,
				0,
				0.7071068286895752
			],
			"scale":[
				0.006837200373411179,
				0.006837200373411179,
				0.006837200373411179
			],
			"translation":[
				0.0011055544018745422,
				0.02114108018577099,
				0.023740604519844055
			]
		},
		{
			"mesh":2,
			"name":"chocolates",
			"rotation":[
				-0.008405730128288269,
				0.2692978084087372,
				0.0023506085854023695,
				0.9630175232887268
			],
			"scale":[
				0.02623923495411873,
				0.026239236816763878,
				0.02623923495411873
			],
			"translation":[
				0.020914148539304733,
				0.005909533239901066,
				-0.051899150013923645
			]
		},
		{
			"mesh":2,
			"name":"chocolates.001",
			"rotation":[
				-0.008561679162085056,
				0.3425992429256439,
				0.0016968576237559319,
				0.9394412040710449
			],
			"scale":[
				0.026239236816763878,
				0.026239236816763878,
				0.02623923495411873
			],
			"translation":[
				0.031273651868104935,
				0.0034819557331502438,
				-0.053900960832834244
			]
		}
	],
	"materials":[
		{
			"doubleSided":true,
			"name":"plastic_cover",
			"pbrMetallicRoughness":{
				"baseColorFactor":[
					0.25818121433258057,
					0.2704980671405792,
					0.2831488847732544,
					1
				],
				"metallicFactor":0,
				"roughnessFactor":0.5
			}
		},
		{
			"doubleSided":true,
			"name":"picture_cover",
			"pbrMetallicRoughness":{
				"baseColorTexture":{
					"index":0
				},
				"metallicFactor":0,
				"roughnessFactor":0.5
			}
		},
		{
			"doubleSided":true,
			"name":"choco_texture",
			"pbrMetallicRoughness":{
				"baseColorFactor":[
					0.08228225260972977,
					0.023153377696871758,
					0.015996305271983147,
					1
				],
				"metallicFactor":0.014492765069007874,
				"roughnessFactor":0.75
			}
		}
	],
	"meshes":[
		{
			"name":"Cube.002",
			"primitives":[
				{
					"attributes":{
						"POSITION":0,
						"NORMAL":1,
						"TEXCOORD_0":2
					},
					"indices":3,
					"material":0
				},
				{
					"attributes":{
						"POSITION":4,
						"NORMAL":5,
						"TEXCOORD_0":6
					},
					"indices":7,
					"material":1
				}
			]
		},
		{
			"name":"Text",
			"primitives":[
				{
					"attributes":{
						"POSITION":8,
						"NORMAL":9,
						"TEXCOORD_0":10
					},
					"indices":11
				}
			]
		},
		{
			"name":"Cube.004",
			"primitives":[
				{
					"attributes":{
						"POSITION":12,
						"NORMAL":13,
						"TEXCOORD_0":14
					},
					"indices":15,
					"material":2
				}
			]
		}
	],
	"textures":[
		{
			"sampler":0,
			"source":0
		}
	],
	"images":[
		{
			"mimeType":"image/jpeg",
			"name":"hersherys cover",
			"uri":"hersherys%20cover.jpg"
		}
	],
	"accessors":[
		{
			"bufferView":0,
			"componentType":5126,
			"count":6092,
			"max":[
				0.0012262100353837013,
				0.027500003576278687,
				0.06734083592891693
			],
			"min":[
				-0.0012262100353837013,
				-0.027500003576278687,
				-0.06734083592891693
			],
			"type":"VEC3"
		},
		{
			"bufferView":1,
			"componentType":5126,
			"count":6092,
			"type":"VEC3"
		},
		{
			"bufferView":2,
			"componentType":5126,
			"count":6092,
			"type":"VEC2"
		},
		{
			"bufferView":3,
			"componentType":5123,
			"count":9204,
			"type":"SCALAR"
		},
		{
			"bufferView":4,
			"componentType":5126,
			"count":1088,
			"max":[
				0.003616784233599901,
				0.026545071974396706,
				0.05714285001158714
			],
			"min":[
				-0.003616784233599901,
				-0.026545068249106407,
				-0.05714285001158714
			],
			"type":"VEC3"
		},
		{
			"bufferView":5,
			"componentType":5126,
			"count":1088,
			"type":"VEC3"
		},
		{
			"bufferView":6,
			"componentType":5126,
			"count":1088,
			"type":"VEC2"
		},
		{
			"bufferView":7,
			"componentType":5123,
			"count":1722,
			"type":"SCALAR"
		},
		{
			"bufferView":8,
			"componentType":5126,
			"count":5081,
			"max":[
				3.004343271255493,
				0.12009410560131073,
				0.008876881562173367
			],
			"min":[
				0.036665380001068115,
				0,
				-0.5249450206756592
			],
			"type":"VEC3"
		},
		{
			"bufferView":9,
			"componentType":5126,
			"count":5081,
			"type":"VEC3"
		},
		{
			"bufferView":10,
			"componentType":5126,
			"count":5081,
			"type":"VEC2"
		},
		{
			"bufferView":11,
			"componentType":5123,
			"count":10008,
			"type":"SCALAR"
		},
		{
			"bufferView":12,
			"componentType":5126,
			"count":59096,
			"max":[
				0.5706189870834351,
				0.03308984264731407,
				2.2703704833984375
			],
			"min":[
				-0.6266953945159912,
				-0.0830746442079544,
				-1.6201438903808594
			],
			"type":"VEC3"
		},
		{
			"bufferView":13,
			"componentType":5126,
			"count":59096,
			"type":"VEC3"
		},
		{
			"bufferView":14,
			"componentType":5126,
			"count":59096,
			"type":"VEC2"
		},
		{
			"bufferView":15,
			"componentType":5123,
			"count":115566,
			"type":"SCALAR"
		}
	],
	"bufferViews":[
		{
			"buffer":0,
			"byteLength":73104,
			"byteOffset":0,
			"target":34962
		},
		{
			"buffer":0,
			"byteLength":73104,
			"byteOffset":73104,
			"target":34962
		},
		{
			"buffer":0,
			"byteLength":48736,
			"byteOffset":146208,
			"target":34962
		},
		{
			"buffer":0,
			"byteLength":18408,
			"byteOffset":194944,
			"target":34963
		},
		{
			"buffer":0,
			"byteLength":13056,
			"byteOffset":213352,
			"target":34962
		},
		{
			"buffer":0,
			"byteLength":13056,
			"byteOffset":226408,
			"target":34962
		},
		{
			"buffer":0,
			"byteLength":8704,
			"byteOffset":239464,
			"target":34962
		},
		{
			"buffer":0,
			"byteLength":3444,
			"byteOffset":248168,
			"target":34963
		},
		{
			"buffer":0,
			"byteLength":60972,
			"byteOffset":251612,
			"target":34962
		},
		{
			"buffer":0,
			"byteLength":60972,
			"byteOffset":312584,
			"target":34962
		},
		{
			"buffer":0,
			"byteLength":40648,
			"byteOffset":373556,
			"target":34962
		},
		{
			"buffer":0,
			"byteLength":20016,
			"byteOffset":414204,
			"target":34963
		},
		{
			"buffer":0,
			"byteLength":709152,
			"byteOffset":434220,
			"target":34962
		},
		{
			"buffer":0,
			"byteLength":709152,
			"byteOffset":1143372,
			"target":34962
		},
		{
			"buffer":0,
			"byteLength":472768,
			"byteOffset":1852524,
			"target":34962
		},
		{
			"buffer":0,
			"byteLength":231132,
			"byteOffset":2325292,
			"target":34963
		}
	],
	"samplers":[
		{
			"magFilter":9729,
			"minFilter":9987
		}
	],
	"buffers":[
		{
			"byteLength":2556424,
			"uri":"scene.bin"
		}
	]
}
