{
	"asset":{
		"generator":"Khronos glTF Blender I/O v4.2.57",
		"version":"2.0"
	},
	"extensionsUsed":[
		"KHR_materials_specular"
	],
	"scene":0,
	"scenes":[
		{
			"name":"Scene",
			"nodes":[
				0
			]
		}
	],
	"nodes":[
		{
			"mesh":0,
			"name":"lamp",
			"scale":[
				0.03042629547417164,
				0.03042629547417164,
				0.03042629547417164
			],
			"translation":[
				-0.0005871821194887161,
				-0.02720072865486145,
				0.0019303709268569946
			]
		}
	],
	"materials":[
		{
			"doubleSided":true,
			"extensions":{
				"KHR_materials_specular":{
					"specularFactor":0.6700000166893005
				}
			},
			"name":"lampp",
			"pbrMetallicRoughness":{
				"baseColorFactor":[
					0.800000011920929,
					0.800000011920929,
					0.800000011920929,
					1
				],
				"metallicFactor":0,
				"roughnessFactor":0.6086956262588501
			}
		},
		{
			"doubleSided":true,
			"name":"wood",
			"pbrMetallicRoughness":{
				"baseColorTexture":{
					"index":0
				},
				"metallicFactor":0,
				"roughnessFactor":0.5
			}
		},
		{
			"doubleSided":true,
			"name":"whiteplastic",
			"pbrMetallicRoughness":{
				"baseColorFactor":[
					0.800000011920929,
					0.800000011920929,
					0.800000011920929,
					1
				],
				"metallicFactor":0,
				"roughnessFactor":0.6739130616188049
			}
		}
	],
	"meshes":[
		{
			"name":"Circle",
			"primitives":[
				{
					"attributes":{
						"POSITION":0,
						"NORMAL":1,
						"TEXCOORD_0":2
					},
					"indices":3,
					"material":0
				},
				{
					"attributes":{
						"POSITION":4,
						"NORMAL":5,
						"TEXCOORD_0":6
					},
					"indices":7,
					"material":1
				},
				{
					"attributes":{
						"POSITION":8,
						"NORMAL":9,
						"TEXCOORD_0":10
					},
					"indices":11,
					"material":2
				}
			]
		}
	],
	"textures":[
		{
			"sampler":0,
			"source":0
		}
	],
	"images":[
		{
			"mimeType":"image/jpeg",
			"name":"wood_floor_deck_diff_1k",
			"uri":"wood_floor_deck_diff_1k.jpg"
		}
	],
	"accessors":[
		{
			"bufferView":0,
			"componentType":5126,
			"count":1504,
			"max":[
				2.4522366523742676,
				3.822512626647949,
				2.452237367630005
			],
			"min":[
				-2.452238082885742,
				-0.4026477336883545,
				-2.452237367630005
			],
			"type":"VEC3"
		},
		{
			"bufferView":1,
			"componentType":5126,
			"count":1504,
			"type":"VEC3"
		},
		{
			"bufferView":2,
			"componentType":5126,
			"count":1504,
			"type":"VEC2"
		},
		{
			"bufferView":3,
			"componentType":5123,
			"count":2394,
			"type":"SCALAR"
		},
		{
			"bufferView":4,
			"componentType":5126,
			"count":128,
			"max":[
				0.1723519265651703,
				1.8804540634155273,
				0.17235156893730164
			],
			"min":[
				-0.17235128581523895,
				-1.7386618852615356,
				-0.17235156893730164
			],
			"type":"VEC3"
		},
		{
			"bufferView":5,
			"componentType":5126,
			"count":128,
			"type":"VEC3"
		},
		{
			"bufferView":6,
			"componentType":5126,
			"count":128,
			"type":"VEC2"
		},
		{
			"bufferView":7,
			"componentType":5123,
			"count":192,
			"type":"SCALAR"
		},
		{
			"bufferView":8,
			"componentType":5126,
			"count":1184,
			"max":[
				1.000000238418579,
				-1.7386618852615356,
				1
			],
			"min":[
				-0.9999997019767761,
				-2.696592330932617,
				-1
			],
			"type":"VEC3"
		},
		{
			"bufferView":9,
			"componentType":5126,
			"count":1184,
			"type":"VEC3"
		},
		{
			"bufferView":10,
			"componentType":5126,
			"count":1184,
			"type":"VEC2"
		},
		{
			"bufferView":11,
			"componentType":5123,
			"count":2010,
			"type":"SCALAR"
		}
	],
	"bufferViews":[
		{
			"buffer":0,
			"byteLength":18048,
			"byteOffset":0,
			"target":34962
		},
		{
			"buffer":0,
			"byteLength":18048,
			"byteOffset":18048,
			"target":34962
		},
		{
			"buffer":0,
			"byteLength":12032,
			"byteOffset":36096,
			"target":34962
		},
		{
			"buffer":0,
			"byteLength":4788,
			"byteOffset":48128,
			"target":34963
		},
		{
			"buffer":0,
			"byteLength":1536,
			"byteOffset":52916,
			"target":34962
		},
		{
			"buffer":0,
			"byteLength":1536,
			"byteOffset":54452,
			"target":34962
		},
		{
			"buffer":0,
			"byteLength":1024,
			"byteOffset":55988,
			"target":34962
		},
		{
			"buffer":0,
			"byteLength":384,
			"byteOffset":57012,
			"target":34963
		},
		{
			"buffer":0,
			"byteLength":14208,
			"byteOffset":57396,
			"target":34962
		},
		{
			"buffer":0,
			"byteLength":14208,
			"byteOffset":71604,
			"target":34962
		},
		{
			"buffer":0,
			"byteLength":9472,
			"byteOffset":85812,
			"target":34962
		},
		{
			"buffer":0,
			"byteLength":4020,
			"byteOffset":95284,
			"target":34963
		}
	],
	"samplers":[
		{
			"magFilter":9729,
			"minFilter":9987
		}
	],
	"buffers":[
		{
			"byteLength":99304,
			"uri":"scene.bin"
		}
	]
}
