{
	"asset":{
		"generator":"Khronos glTF Blender I/O v4.2.57",
		"version":"2.0"
	},
	"scene":0,
	"scenes":[
		{
			"name":"Scene",
			"nodes":[
				0,
				1,
				2
			]
		}
	],
	"nodes":[
		{
			"mesh":0,
			"name":"base",
			"scale":[
				0.10233595222234726,
				0.10233595222234726,
				0.10233595222234726
			],
			"translation":[
				0,
				0.016599735245108604,
				0
			]
		},
		{
			"mesh":1,
			"name":"top",
			"scale":[
				0.10233595222234726,
				0.10233595222234726,
				0.10233595222234726
			],
			"translation":[
				0,
				0.01767430454492569,
				0
			]
		},
		{
			"mesh":2,
			"name":"shed",
			"scale":[
				0.10233595222234726,
				0.10233595222234726,
				0.10233595222234726
			],
			"translation":[
				0,
				0.023161709308624268,
				0
			]
		}
	],
	"materials":[
		{
			"doubleSided":true,
			"name":"whiteplastic",
			"pbrMetallicRoughness":{
				"baseColorFactor":[
					0.800000011920929,
					0.800000011920929,
					0.800000011920929,
					1
				],
				"metallicFactor":0.6086956262588501,
				"roughnessFactor":0.5
			}
		},
		{
			"doubleSided":true,
			"name":"violetplastic",
			"pbrMetallicRoughness":{
				"baseColorFactor":[
					0.1407204568386078,
					0.01699611358344555,
					0.36984071135520935,
					1
				],
				"metallicFactor":0.6521739363670349,
				"roughnessFactor":0.26811596751213074
			}
		},
		{
			"doubleSided":true,
			"name":"yellowplastic",
			"pbrMetallicRoughness":{
				"baseColorFactor":[
					1,
					0.8122985363006592,
					0.07896991074085236,
					1
				],
				"metallicFactor":0.6520000100135803,
				"roughnessFactor":0.2680000066757202
			}
		}
	],
	"meshes":[
		{
			"name":"Cube",
			"primitives":[
				{
					"attributes":{
						"POSITION":0,
						"NORMAL":1,
						"TEXCOORD_0":2
					},
					"indices":3,
					"material":0
				}
			]
		},
		{
			"name":"Cube.002",
			"primitives":[
				{
					"attributes":{
						"POSITION":4,
						"NORMAL":5,
						"TEXCOORD_0":6
					},
					"indices":7,
					"material":1
				}
			]
		},
		{
			"name":"Cube.003",
			"primitives":[
				{
					"attributes":{
						"POSITION":8,
						"NORMAL":9,
						"TEXCOORD_0":10
					},
					"indices":11,
					"material":2
				}
			]
		}
	],
	"accessors":[
		{
			"bufferView":0,
			"componentType":5126,
			"count":2816,
			"max":[
				0.8446561694145203,
				-0.18049153685569763,
				0.40338587760925293
			],
			"min":[
				-0.6498235464096069,
				-0.3628275990486145,
				-0.40338587760925293
			],
			"type":"VEC3"
		},
		{
			"bufferView":1,
			"componentType":5126,
			"count":2816,
			"type":"VEC3"
		},
		{
			"bufferView":2,
			"componentType":5126,
			"count":2816,
			"type":"VEC2"
		},
		{
			"bufferView":3,
			"componentType":5123,
			"count":5988,
			"type":"SCALAR"
		},
		{
			"bufferView":4,
			"componentType":5126,
			"count":2801,
			"max":[
				0.8451545834541321,
				-0.1394464522600174,
				0.40477848052978516
			],
			"min":[
				-0.6506304144859314,
				-0.33818984031677246,
				-0.40477848052978516
			],
			"type":"VEC3"
		},
		{
			"bufferView":5,
			"componentType":5126,
			"count":2801,
			"type":"VEC3"
		},
		{
			"bufferView":6,
			"componentType":5126,
			"count":2801,
			"type":"VEC2"
		},
		{
			"bufferView":7,
			"componentType":5123,
			"count":6402,
			"type":"SCALAR"
		},
		{
			"bufferView":8,
			"componentType":5126,
			"count":839,
			"max":[
				0.3279559016227722,
				-0.018575437366962433,
				0.2875250279903412
			],
			"min":[
				-0.21629451215267181,
				-0.24673087894916534,
				-0.2875250279903412
			],
			"type":"VEC3"
		},
		{
			"bufferView":9,
			"componentType":5126,
			"count":839,
			"type":"VEC3"
		},
		{
			"bufferView":10,
			"componentType":5126,
			"count":839,
			"type":"VEC2"
		},
		{
			"bufferView":11,
			"componentType":5123,
			"count":1554,
			"type":"SCALAR"
		}
	],
	"bufferViews":[
		{
			"buffer":0,
			"byteLength":33792,
			"byteOffset":0,
			"target":34962
		},
		{
			"buffer":0,
			"byteLength":33792,
			"byteOffset":33792,
			"target":34962
		},
		{
			"buffer":0,
			"byteLength":22528,
			"byteOffset":67584,
			"target":34962
		},
		{
			"buffer":0,
			"byteLength":11976,
			"byteOffset":90112,
			"target":34963
		},
		{
			"buffer":0,
			"byteLength":33612,
			"byteOffset":102088,
			"target":34962
		},
		{
			"buffer":0,
			"byteLength":33612,
			"byteOffset":135700,
			"target":34962
		},
		{
			"buffer":0,
			"byteLength":22408,
			"byteOffset":169312,
			"target":34962
		},
		{
			"buffer":0,
			"byteLength":12804,
			"byteOffset":191720,
			"target":34963
		},
		{
			"buffer":0,
			"byteLength":10068,
			"byteOffset":204524,
			"target":34962
		},
		{
			"buffer":0,
			"byteLength":10068,
			"byteOffset":214592,
			"target":34962
		},
		{
			"buffer":0,
			"byteLength":6712,
			"byteOffset":224660,
			"target":34962
		},
		{
			"buffer":0,
			"byteLength":3108,
			"byteOffset":231372,
			"target":34963
		}
	],
	"buffers":[
		{
			"byteLength":234480,
			"uri":"scene.bin"
		}
	]
}
