{
	"asset":{
		"generator":"Khronos glTF Blender I/O v4.2.57",
		"version":"2.0"
	},
	"scene":0,
	"scenes":[
		{
			"name":"Scene",
			"nodes":[
				0
			]
		}
	],
	"nodes":[
		{
			"mesh":0,
			"name":"base",
			"scale":[
				0.17890572547912598,
				0.17890572547912598,
				0.17890572547912598
			],
			"translation":[
				0,
				0.09909486025571823,
				0
			]
		}
	],
	"materials":[
		{
			"doubleSided":true,
			"name":"plastic",
			"pbrMetallicRoughness":{
				"baseColorTexture":{
					"index":0
				},
				"metallicRoughnessTexture":{
					"index":1
				}
			}
		},
		{
			"doubleSided":true,
			"name":"black",
			"pbrMetallicRoughness":{
				"baseColorFactor":[
					0,
					0,
					0,
					1
				],
				"metallicFactor":0.9342105388641357,
				"roughnessFactor":0.1184210479259491
			}
		},
		{
			"doubleSided":true,
			"name":"screen",
			"pbrMetallicRoughness":{
				"baseColorTexture":{
					"index":2
				},
				"metallicFactor":0.8684210777282715,
				"roughnessFactor":0.5657894611358643
			}
		},
		{
			"doubleSided":true,
			"name":"silver",
			"pbrMetallicRoughness":{
				"baseColorFactor":[
					0.800000011920929,
					0.800000011920929,
					0.800000011920929,
					1
				],
				"metallicFactor":0.5789473652839661,
				"roughnessFactor":0.1315789520740509
			}
		}
	],
	"meshes":[
		{
			"name":"Cube.001",
			"primitives":[
				{
					"attributes":{
						"POSITION":0,
						"NORMAL":1,
						"TEXCOORD_0":2
					},
					"indices":3,
					"material":0
				},
				{
					"attributes":{
						"POSITION":4,
						"NORMAL":5,
						"TEXCOORD_0":6
					},
					"indices":7,
					"material":1
				},
				{
					"attributes":{
						"POSITION":8,
						"NORMAL":9,
						"TEXCOORD_0":10
					},
					"indices":11,
					"material":2
				},
				{
					"attributes":{
						"POSITION":12,
						"NORMAL":13,
						"TEXCOORD_0":14
					},
					"indices":15,
					"material":3
				}
			]
		}
	],
	"textures":[
		{
			"sampler":0,
			"source":0
		},
		{
			"sampler":0,
			"source":1
		},
		{
			"sampler":0,
			"source":2
		}
	],
	"images":[
		{
			"mimeType":"image/jpeg",
			"name":"Poliigon_PlasticMoldDryBlast_7495_BaseColor",
			"uri":"Poliigon_PlasticMoldDryBlast_7495_BaseColor.jpg"
		},
		{
			"mimeType":"image/png",
			"name":"Poliigon_PlasticMoldDryBlast_7495_Metallic-Poliigon_PlasticMoldDryBlast_7495_Roughness",
			"uri":"Poliigon_PlasticMoldDryBlast_7495_Metallic-Poliigon_PlasticMoldDryBlast_7495_Roughness.png"
		},
		{
			"mimeType":"image/jpeg",
			"name":"177585",
			"uri":"177585.jpg"
		}
	],
	"accessors":[
		{
			"bufferView":0,
			"componentType":5126,
			"count":5834,
			"max":[
				0.028995031490921974,
				0.457783043384552,
				0.21463817358016968
			],
			"min":[
				-0.041402388364076614,
				-0.4577829837799072,
				-0.2218017876148224
			],
			"type":"VEC3"
		},
		{
			"bufferView":1,
			"componentType":5126,
			"count":5834,
			"type":"VEC3"
		},
		{
			"bufferView":2,
			"componentType":5126,
			"count":5834,
			"type":"VEC2"
		},
		{
			"bufferView":3,
			"componentType":5123,
			"count":10989,
			"type":"SCALAR"
		},
		{
			"bufferView":4,
			"componentType":5126,
			"count":565,
			"max":[
				0.028995033353567123,
				0.4536219835281372,
				0.21463817358016968
			],
			"min":[
				-0.041060011833906174,
				-0.45362192392349243,
				-0.21047711372375488
			],
			"type":"VEC3"
		},
		{
			"bufferView":5,
			"componentType":5126,
			"count":565,
			"type":"VEC3"
		},
		{
			"bufferView":6,
			"componentType":5126,
			"count":565,
			"type":"VEC2"
		},
		{
			"bufferView":7,
			"componentType":5123,
			"count":1413,
			"type":"SCALAR"
		},
		{
			"bufferView":8,
			"componentType":5126,
			"count":97,
			"max":[
				0.028995033353567123,
				0.4418363571166992,
				0.20726962387561798
			],
			"min":[
				0.028995027765631676,
				-0.43999814987182617,
				-0.20726962387561798
			],
			"type":"VEC3"
		},
		{
			"bufferView":9,
			"componentType":5126,
			"count":97,
			"type":"VEC3"
		},
		{
			"bufferView":10,
			"componentType":5126,
			"count":97,
			"type":"VEC2"
		},
		{
			"bufferView":11,
			"componentType":5123,
			"count":333,
			"type":"SCALAR"
		},
		{
			"bufferView":12,
			"componentType":5126,
			"count":124,
			"max":[
				0.028995031490921974,
				0.4565487504005432,
				0.2134038656949997
			],
			"min":[
				0.026892682537436485,
				-0.45654869079589844,
				-0.2134038656949997
			],
			"type":"VEC3"
		},
		{
			"bufferView":13,
			"componentType":5126,
			"count":124,
			"type":"VEC3"
		},
		{
			"bufferView":14,
			"componentType":5126,
			"count":124,
			"type":"VEC2"
		},
		{
			"bufferView":15,
			"componentType":5123,
			"count":186,
			"type":"SCALAR"
		}
	],
	"bufferViews":[
		{
			"buffer":0,
			"byteLength":70008,
			"byteOffset":0,
			"target":34962
		},
		{
			"buffer":0,
			"byteLength":70008,
			"byteOffset":70008,
			"target":34962
		},
		{
			"buffer":0,
			"byteLength":46672,
			"byteOffset":140016,
			"target":34962
		},
		{
			"buffer":0,
			"byteLength":21978,
			"byteOffset":186688,
			"target":34963
		},
		{
			"buffer":0,
			"byteLength":6780,
			"byteOffset":208668,
			"target":34962
		},
		{
			"buffer":0,
			"byteLength":6780,
			"byteOffset":215448,
			"target":34962
		},
		{
			"buffer":0,
			"byteLength":4520,
			"byteOffset":222228,
			"target":34962
		},
		{
			"buffer":0,
			"byteLength":2826,
			"byteOffset":226748,
			"target":34963
		},
		{
			"buffer":0,
			"byteLength":1164,
			"byteOffset":229576,
			"target":34962
		},
		{
			"buffer":0,
			"byteLength":1164,
			"byteOffset":230740,
			"target":34962
		},
		{
			"buffer":0,
			"byteLength":776,
			"byteOffset":231904,
			"target":34962
		},
		{
			"buffer":0,
			"byteLength":666,
			"byteOffset":232680,
			"target":34963
		},
		{
			"buffer":0,
			"byteLength":1488,
			"byteOffset":233348,
			"target":34962
		},
		{
			"buffer":0,
			"byteLength":1488,
			"byteOffset":234836,
			"target":34962
		},
		{
			"buffer":0,
			"byteLength":992,
			"byteOffset":236324,
			"target":34962
		},
		{
			"buffer":0,
			"byteLength":372,
			"byteOffset":237316,
			"target":34963
		}
	],
	"samplers":[
		{
			"magFilter":9729,
			"minFilter":9987
		}
	],
	"buffers":[
		{
			"byteLength":237688,
			"uri":"scene.bin"
		}
	]
}
