<svg width="25" height="24" viewBox="0 0 25 24" fill="none" xmlns="http://www.w3.org/2000/svg">
<g id="icons/facebook" clip-path="url(#clip0_388_132)">
<path id="facebook-icon" d="M24.501 12.074C24.501 5.40499 19.128 -0.00100708 12.501 -0.00100708C5.871 0.000492921 0.498001 5.405 0.498001 12.0755C0.498001 18.101 4.887 23.096 10.623 24.002V15.5645H7.578V12.0755H10.626V9.413C10.626 6.3875 12.4185 4.71649 15.159 4.71649C16.473 4.71649 17.8455 4.95199 17.8455 4.95199V7.922H16.332C14.8425 7.922 14.3775 8.8535 14.3775 9.809V12.074H17.7045L17.1735 15.563H14.376V24.0005C20.112 23.0945 24.501 18.0995 24.501 12.074Z" fill="#0E0E0E"/>
</g>
<defs>
<clipPath id="clip0_388_132">
<rect width="24" height="24" fill="white" transform="translate(0.5)"/>
</clipPath>
</defs>
</svg>
