<svg width="25" height="24" viewBox="0 0 25 24" fill="none" xmlns="http://www.w3.org/2000/svg">
<g id="icons/gmail" clip-path="url(#clip0_388_138)">
<path id="gmail-icon" d="M22.1 18.8H19.7V8.3L12.5 12.8L5.3 8.3V18.8H2.9V4.4H4.34L12.5 9.5L20.66 4.4H22.1M22.1 2H2.9C1.568 2 0.5 3.068 0.5 4.4V18.8C0.5 19.4365 0.752856 20.047 1.20294 20.4971C1.65303 20.9471 2.26348 21.2 2.9 21.2H22.1C22.7365 21.2 23.347 20.9471 23.7971 20.4971C24.2471 20.047 24.5 19.4365 24.5 18.8V4.4C24.5 3.76348 24.2471 3.15303 23.7971 2.70294C23.347 2.25286 22.7365 2 22.1 2Z" fill="#0E0E0E"/>
</g>
<defs>
<clipPath id="clip0_388_138">
<rect width="24" height="24" fill="white" transform="translate(0.5)"/>
</clipPath>
</defs>
</svg>
