<svg width="25" height="24" viewBox="0 0 25 24" fill="none" xmlns="http://www.w3.org/2000/svg">
<g id="icons/twitter" clip-path="url(#clip0_388_136)">
<path id="twitter-icon" d="M8.039 22.5C17.096 22.5 22.0505 14.9955 22.0505 8.499C22.0505 8.289 22.0505 8.076 22.0415 7.866C23.0061 7.16773 23.8386 6.30323 24.5 5.313C23.599 5.71028 22.6441 5.97211 21.6665 6.09C22.6963 5.47446 23.4676 4.50595 23.837 3.3645C22.8695 3.93769 21.8105 4.34006 20.7065 4.554C19.9643 3.76354 18.9821 3.23988 17.9121 3.06414C16.8421 2.8884 15.7441 3.07038 14.788 3.58191C13.8319 4.09343 13.0712 4.90595 12.6237 5.89359C12.1761 6.88124 12.0668 7.9889 12.3125 9.045C10.3546 8.94683 8.43922 8.4382 6.69056 7.55212C4.9419 6.66603 3.39903 5.42227 2.162 3.9015C1.53401 4.98613 1.34236 6.2691 1.62597 7.4899C1.90958 8.7107 2.64718 9.7778 3.689 10.4745C2.90831 10.448 2.14478 10.2383 1.46 9.8625V9.93C1.46135 11.0662 1.85496 12.1671 2.57431 13.0466C3.29366 13.9262 4.29462 14.5303 5.408 14.757C4.98539 14.8734 4.54884 14.9315 4.1105 14.9295C3.80148 14.9304 3.49307 14.9018 3.1895 14.844C3.50418 15.8221 4.11691 16.6773 4.94187 17.2897C5.76683 17.9022 6.7627 18.2413 7.79 18.2595C6.04483 19.6302 3.8891 20.3736 1.67 20.37C1.27898 20.3717 0.888235 20.3491 0.5 20.3025C2.75227 21.7384 5.36795 22.5008 8.039 22.5Z" fill="#0E0E0E"/>
</g>
<defs>
<clipPath id="clip0_388_136">
<rect width="24" height="24" fill="white" transform="translate(0.5)"/>
</clipPath>
</defs>
</svg>
