{
	"asset":{
		"generator":"Khronos glTF Blender I/O v4.2.57",
		"version":"2.0"
	},
	"scene":0,
	"scenes":[
		{
			"name":"Scene",
			"nodes":[
				0
			]
		}
	],
	"nodes":[
		{
			"mesh":0,
			"name":"Circle",
			"rotation":[
				0.5,
				0.5,
				-0.4999999403953552,
				0.5000000596046448
			],
			"scale":[
				0.08862335234880447,
				0.08862335234880447,
				0.08862335234880447
			],
			"translation":[
				0,
				0.05462247133255005,
				0
			]
		}
	],
	"materials":[
		{
			"doubleSided":true,
			"name":"pinkplastic",
			"pbrMetallicRoughness":{
				"baseColorFactor":[
					1,
					0.16590499877929688,
					0.7862852811813354,
					1
				],
				"metallicFactor":0,
				"roughnessFactor":0.7898550629615784
			}
		},
		{
			"doubleSided":true,
			"name":"mirror",
			"pbrMetallicRoughness":{
				"baseColorFactor":[
					0.800000011920929,
					0.800000011920929,
					0.800000011920929,
					1
				],
				"roughnessFactor":0
			}
		}
	],
	"meshes":[
		{
			"name":"Circle",
			"primitives":[
				{
					"attributes":{
						"POSITION":0,
						"NORMAL":1,
						"TEXCOORD_0":2
					},
					"indices":3,
					"material":0
				},
				{
					"attributes":{
						"POSITION":4,
						"NORMAL":5,
						"TEXCOORD_0":6
					},
					"indices":7,
					"material":1
				}
			]
		}
	],
	"accessors":[
		{
			"bufferView":0,
			"componentType":5126,
			"count":1872,
			"max":[
				1.0831148624420166,
				0.08999999612569809,
				2.2797763347625732
			],
			"min":[
				-1.0831141471862793,
				-9.068558171065888e-08,
				-1.0831142663955688
			],
			"type":"VEC3"
		},
		{
			"bufferView":1,
			"componentType":5126,
			"count":1872,
			"type":"VEC3"
		},
		{
			"bufferView":2,
			"componentType":5126,
			"count":1872,
			"type":"VEC2"
		},
		{
			"bufferView":3,
			"componentType":5123,
			"count":3924,
			"type":"SCALAR"
		},
		{
			"bufferView":4,
			"componentType":5126,
			"count":32,
			"max":[
				1,
				0.060814473778009415,
				1
			],
			"min":[
				-1,
				0.060814473778009415,
				-1
			],
			"type":"VEC3"
		},
		{
			"bufferView":5,
			"componentType":5126,
			"count":32,
			"type":"VEC3"
		},
		{
			"bufferView":6,
			"componentType":5126,
			"count":32,
			"type":"VEC2"
		},
		{
			"bufferView":7,
			"componentType":5123,
			"count":90,
			"type":"SCALAR"
		}
	],
	"bufferViews":[
		{
			"buffer":0,
			"byteLength":22464,
			"byteOffset":0,
			"target":34962
		},
		{
			"buffer":0,
			"byteLength":22464,
			"byteOffset":22464,
			"target":34962
		},
		{
			"buffer":0,
			"byteLength":14976,
			"byteOffset":44928,
			"target":34962
		},
		{
			"buffer":0,
			"byteLength":7848,
			"byteOffset":59904,
			"target":34963
		},
		{
			"buffer":0,
			"byteLength":384,
			"byteOffset":67752,
			"target":34962
		},
		{
			"buffer":0,
			"byteLength":384,
			"byteOffset":68136,
			"target":34962
		},
		{
			"buffer":0,
			"byteLength":256,
			"byteOffset":68520,
			"target":34962
		},
		{
			"buffer":0,
			"byteLength":180,
			"byteOffset":68776,
			"target":34963
		}
	],
	"buffers":[
		{
			"byteLength":68956,
			"uri":"scene.bin"
		}
	]
}
