{
	"asset":{
		"generator":"Khronos glTF Blender I/O v4.2.57",
		"version":"2.0"
	},
	"scene":0,
	"scenes":[
		{
			"name":"Scene",
			"nodes":[
				0
			]
		}
	],
	"nodes":[
		{
			"mesh":0,
			"name":"base",
			"translation":[
				0,
				0.16354747116565704,
				0
			]
		}
	],
	"materials":[
		{
			"doubleSided":true,
			"name":"tape",
			"pbrMetallicRoughness":{
				"baseColorFactor":[
					0.3080388605594635,
					0.3080388605594635,
					0.3080388605594635,
					1
				],
				"metallicFactor":0.5652173757553101,
				"roughnessFactor":0.9275362491607666
			}
		},
		{
			"doubleSided":true,
			"name":"karton",
			"pbrMetallicRoughness":{
				"baseColorFactor":[
					0.13932710886001587,
					0.04406245797872543,
					0.0024093349929898977,
					1
				],
				"metallicFactor":0,
				"roughnessFactor":0.5
			}
		},
		{
			"doubleSided":true,
			"name":"locksport-logo",
			"pbrMetallicRoughness":{
				"baseColorTexture":{
					"index":0
				},
				"metallicFactor":0,
				"roughnessFactor":0.5
			}
		}
	],
	"meshes":[
		{
			"name":"Cylinder",
			"primitives":[
				{
					"attributes":{
						"POSITION":0,
						"NORMAL":1,
						"TEXCOORD_0":2
					},
					"indices":3,
					"material":0
				},
				{
					"attributes":{
						"POSITION":4,
						"NORMAL":5,
						"TEXCOORD_0":6
					},
					"indices":7,
					"material":1
				},
				{
					"attributes":{
						"POSITION":8,
						"NORMAL":9,
						"TEXCOORD_0":10
					},
					"indices":11,
					"material":2
				}
			]
		}
	],
	"textures":[
		{
			"sampler":0,
			"source":0
		}
	],
	"images":[
		{
			"mimeType":"image/jpeg",
			"name":"textEdit",
			"uri":"textEdit.jpg"
		}
	],
	"accessors":[
		{
			"bufferView":0,
			"componentType":5126,
			"count":16993,
			"max":[
				0.09006841480731964,
				0.19543768465518951,
				0.19543766975402832
			],
			"min":[
				-0.09006841480731964,
				-0.19543768465518951,
				-0.27738094329833984
			],
			"type":"VEC3"
		},
		{
			"bufferView":1,
			"componentType":5126,
			"count":16993,
			"type":"VEC3"
		},
		{
			"bufferView":2,
			"componentType":5126,
			"count":16993,
			"type":"VEC2"
		},
		{
			"bufferView":3,
			"componentType":5123,
			"count":29760,
			"type":"SCALAR"
		},
		{
			"bufferView":4,
			"componentType":5126,
			"count":1200,
			"max":[
				0.0940578281879425,
				0.13086633384227753,
				0.13086634874343872
			],
			"min":[
				-0.0940578281879425,
				-0.13086636364459991,
				-0.13086634874343872
			],
			"type":"VEC3"
		},
		{
			"bufferView":5,
			"componentType":5126,
			"count":1200,
			"type":"VEC3"
		},
		{
			"bufferView":6,
			"componentType":5126,
			"count":1200,
			"type":"VEC2"
		},
		{
			"bufferView":7,
			"componentType":5123,
			"count":2400,
			"type":"SCALAR"
		},
		{
			"bufferView":8,
			"componentType":5126,
			"count":1400,
			"max":[
				0.0940578281879425,
				0.11799351871013641,
				0.11799350380897522
			],
			"min":[
				-0.0940578281879425,
				-0.11799351871013641,
				-0.11799350380897522
			],
			"type":"VEC3"
		},
		{
			"bufferView":9,
			"componentType":5126,
			"count":1400,
			"type":"VEC3"
		},
		{
			"bufferView":10,
			"componentType":5126,
			"count":1400,
			"type":"VEC2"
		},
		{
			"bufferView":11,
			"componentType":5123,
			"count":2400,
			"type":"SCALAR"
		}
	],
	"bufferViews":[
		{
			"buffer":0,
			"byteLength":203916,
			"byteOffset":0,
			"target":34962
		},
		{
			"buffer":0,
			"byteLength":203916,
			"byteOffset":203916,
			"target":34962
		},
		{
			"buffer":0,
			"byteLength":135944,
			"byteOffset":407832,
			"target":34962
		},
		{
			"buffer":0,
			"byteLength":59520,
			"byteOffset":543776,
			"target":34963
		},
		{
			"buffer":0,
			"byteLength":14400,
			"byteOffset":603296,
			"target":34962
		},
		{
			"buffer":0,
			"byteLength":14400,
			"byteOffset":617696,
			"target":34962
		},
		{
			"buffer":0,
			"byteLength":9600,
			"byteOffset":632096,
			"target":34962
		},
		{
			"buffer":0,
			"byteLength":4800,
			"byteOffset":641696,
			"target":34963
		},
		{
			"buffer":0,
			"byteLength":16800,
			"byteOffset":646496,
			"target":34962
		},
		{
			"buffer":0,
			"byteLength":16800,
			"byteOffset":663296,
			"target":34962
		},
		{
			"buffer":0,
			"byteLength":11200,
			"byteOffset":680096,
			"target":34962
		},
		{
			"buffer":0,
			"byteLength":4800,
			"byteOffset":691296,
			"target":34963
		}
	],
	"samplers":[
		{
			"magFilter":9729,
			"minFilter":9987
		}
	],
	"buffers":[
		{
			"byteLength":696096,
			"uri":"scene.bin"
		}
	]
}
